<svg id="Layer_1" enable-background="new 0 0 506.1 506.1" height="512" viewBox="0 0 506.1 506.1" width="512" xmlns="http://www.w3.org/2000/svg"><path d="m489.609 0h-473.118c-9.108 0-16.491 7.383-16.491 16.491v473.118c0 9.107 7.383 16.491 16.491 16.491h473.118c9.107 0 16.491-7.383 16.491-16.491v-473.118c0-9.108-7.384-16.491-16.491-16.491zm-456.628 186.457h137.018v133.187h-137.018zm169.999 0h270.138v133.187h-270.138zm270.138-32.982h-270.138v-120.494h270.138zm-303.119-120.494v120.494h-137.018v-120.494zm-137.018 319.644h137.018v120.494h-137.018zm169.999 120.493v-120.493h270.138v120.494h-270.138z"/><path d="m105.159 141.267c-8.836 0-16-7.164-16-16v-44.09c-9.583-6.162-9.858-20.262-.285-26.72l7.337-4.95c10.603-7.154 24.948.456 24.948 13.264v62.497c0 8.835-7.164 15.999-16 15.999z"/><path d="m101.557 465.931c-14.819 0-28.557-8.385-35.176-21.899-3.887-7.936-.604-17.52 7.332-21.407 7.934-3.886 17.52-.604 21.407 7.332 1.029 2.101 3.572 4.383 7.357 3.917 5.489-.683 8.107-7.48 4.294-11.738-.79-.882-2.527-2.362-5.28-2.362-13.987 0-21.279-16.795-11.621-26.998h-11.46c-8.836 0-16-7.164-16-16s7.164-16 16-16h36.784c18.941 0 28.543 22.895 15.244 36.402l-1.667 1.692c25.243 24.6 7.343 67.05-27.214 67.061z"/><path d="m124.185 305.821c-2.927 0 9.92.106-34.108-.36-13.794-.146-25.017-11.487-25.017-25.283 0-9.042 4.875-17.451 12.723-21.943 27.21-15.577 25.57-14.703 26.944-15.267 2.881-1.181 4.339-4.581 2.876-7.599-1.079-2.228-3.735-3.482-6.14-2.977l-15.938 7.384c-8.018 3.714-17.528.227-21.244-7.792-3.715-8.018-.227-17.529 7.792-21.244 18.36-8.506 17.474-8.142 18.675-8.543 29.924-10.011 58.268 19.455 46.951 49.042-3.546 9.272-10.703 16.818-19.738 20.866l-2.825 1.618 9.215.098c8.836.094 15.923 7.333 15.83 16.168-.094 8.779-7.24 15.832-15.996 15.832z"/></svg>