<?xml version="1.0" encoding="iso-8859-1"?>
<!-- Generator: Adobe Illustrator 19.0.0, SVG Export Plug-In . SVG Version: 6.00 Build 0)  -->
<svg version="1.1" id="Capa_1" xmlns="http://www.w3.org/2000/svg" xmlns:xlink="http://www.w3.org/1999/xlink" x="0px" y="0px"
	 viewBox="0 0 512 512" style="enable-background:new 0 0 512 512;" xml:space="preserve">
<path style="fill:#FFB427;" d="M361.189,156.602v9.972c0,11.867,9.62,21.487,21.488,21.487l0,0c11.867,0,21.487-9.62,21.487-21.487
	v-9.695c0-81.899-65.844-149.369-147.743-149.598c-81.89-0.229-148.585,66.326-148.585,148.163v94.574l0,0h42.975l0,0v-94.574
	c0-58.206,47.521-105.522,105.803-105.187C314.658,50.59,361.189,98.557,361.189,156.602z"/>
<path style="fill:#FF9D00;" d="M256.421,7.281c-0.739-0.002-1.474,0.013-2.211,0.022v42.971c0.799-0.013,1.6-0.021,2.403-0.017
	c58.044,0.333,104.575,48.3,104.575,106.344v9.972c0,11.867,9.62,21.487,21.487,21.487s21.487-9.62,21.487-21.487v-9.695
	C404.164,74.98,338.32,7.51,256.421,7.281z"/>
<path style="fill:#A0D860;" d="M421.644,504.72H90.356c-9.126,0-16.523-7.398-16.523-16.524V256.124
	c0-9.126,7.398-16.523,16.523-16.523h331.288c9.126,0,16.524,7.398,16.524,16.523v232.072
	C438.167,497.322,430.77,504.72,421.644,504.72z"/>
<g>
	<path style="fill:#0072A2;" d="M365.325,321.142h-218.65c-8.626,0-15.618-6.992-15.618-15.618l0,0
		c0-8.625,6.992-15.618,15.618-15.618h218.651c8.626,0,15.618,6.992,15.618,15.618l0,0
		C380.943,314.149,373.951,321.142,365.325,321.142z"/>
	<path style="fill:#0072A2;" d="M365.325,387.778h-218.65c-8.626,0-15.618-6.992-15.618-15.618l0,0
		c0-8.625,6.992-15.618,15.618-15.618h218.651c8.626,0,15.618,6.992,15.618,15.618l0,0
		C380.943,380.786,373.951,387.778,365.325,387.778z"/>
	<path style="fill:#0072A2;" d="M365.325,454.415h-218.65c-8.626,0-15.618-6.992-15.618-15.618l0,0
		c0-8.625,6.992-15.618,15.618-15.618h218.651c8.626,0,15.618,6.992,15.618,15.618l0,0
		C380.943,447.422,373.951,454.415,365.325,454.415z"/>
</g>
<path style="fill:#61C979;" d="M421.644,239.601h-19.051v213.022c0,9.126-7.398,16.523-16.523,16.523H73.832v19.051
	c0,9.126,7.398,16.524,16.524,16.524h331.288c9.126,0,16.523-7.398,16.523-16.524V256.124
	C438.167,246.999,430.77,239.601,421.644,239.601z"/>
<g>
	<path style="fill:#1A1A1A;" d="M421.644,232.321H158.09v-76.876c0-26.214,10.268-50.859,28.913-69.397
		c18.506-18.4,42.987-28.512,68.994-28.512c0.192,0,0.384,0.001,0.576,0.002c53.672,0.307,97.337,44.748,97.337,99.065v9.972
		c0,15.862,12.905,28.767,28.767,28.767s28.768-12.905,28.768-28.767v-9.695c0-33.228-10.236-65.029-29.601-91.963
		c-2.348-3.265-6.9-4.008-10.16-1.662c-3.265,2.348-4.009,6.897-1.662,10.16c17.574,24.442,26.863,53.304,26.863,83.464v9.695
		c0,7.833-6.374,14.207-14.208,14.207c-7.833,0-14.207-6.374-14.207-14.207v-9.972c0-62.299-50.159-113.271-111.813-113.624
		c-30.094-0.188-58.508,11.456-79.919,32.745c-21.414,21.291-33.207,49.603-33.207,79.722v76.876h-28.415v-76.876
		c0-37.642,14.722-73.053,41.453-99.711C183.205,29.172,218.5,14.56,255.998,14.56c0.134,0,0.27,0.001,0.403,0.001
		c33.272,0.093,65.541,12.165,90.863,33.992c3.044,2.624,7.639,2.285,10.267-0.761c2.625-3.045,2.284-7.642-0.761-10.267
		C328.818,13.431,293.187,0.104,256.441,0.001c-0.149,0-0.295-0.001-0.445-0.001c-41.377,0-80.325,16.123-109.708,45.424
		c-29.491,29.408-45.732,68.482-45.732,110.02v76.876h-10.2c-13.125,0-23.803,10.678-23.803,23.804v232.072
		c0,13.126,10.678,23.804,23.803,23.804h331.289c13.125,0,23.803-10.678,23.803-23.804V256.124
		C445.447,242.999,434.769,232.321,421.644,232.321z M430.887,488.196c0,5.097-4.146,9.244-9.243,9.244H90.356
		c-5.097,0-9.243-4.147-9.243-9.244V256.124c0-5.097,4.146-9.244,9.243-9.244h17.48h42.975h270.834c5.097,0,9.243,4.147,9.243,9.244
		v232.072H430.887z"/>
	<path style="fill:#1A1A1A;" d="M365.325,282.626H209.707c-4.021,0-7.28,3.259-7.28,7.28s3.259,7.28,7.28,7.28h155.618
		c4.598,0,8.339,3.74,8.339,8.338c0,4.598-3.74,8.339-8.339,8.339h-218.65c-4.598,0-8.339-3.74-8.339-8.339
		c0-4.597,3.74-8.338,8.339-8.338h28.471c4.021,0,7.28-3.259,7.28-7.28s-3.259-7.28-7.28-7.28h-28.471
		c-12.626,0-22.898,10.271-22.898,22.897s10.272,22.898,22.898,22.898h218.65c12.626,0,22.898-10.272,22.898-22.898
		S377.951,282.626,365.325,282.626z"/>
	<path style="fill:#1A1A1A;" d="M365.325,349.262h-218.65c-12.626,0-22.898,10.272-22.898,22.898s10.272,22.897,22.898,22.897
		h218.65c12.626,0,22.898-10.271,22.898-22.897C388.223,359.535,377.951,349.262,365.325,349.262z M365.325,380.498h-218.65
		c-4.598,0-8.339-3.74-8.339-8.338c0-4.598,3.74-8.339,8.339-8.339h218.65c4.598,0,8.339,3.74,8.339,8.339
		C373.664,376.758,369.923,380.498,365.325,380.498z"/>
	<path style="fill:#1A1A1A;" d="M365.325,415.9h-218.65c-12.626,0-22.898,10.271-22.898,22.897s10.272,22.897,22.898,22.897h218.65
		c12.626,0,22.898-10.271,22.898-22.897C388.223,426.171,377.951,415.9,365.325,415.9z M365.325,447.135h-218.65
		c-4.598,0-8.339-3.74-8.339-8.338s3.74-8.338,8.339-8.338h218.65c4.598,0,8.339,3.74,8.339,8.338S369.923,447.135,365.325,447.135z
		"/>
</g>
<g>
</g>
<g>
</g>
<g>
</g>
<g>
</g>
<g>
</g>
<g>
</g>
<g>
</g>
<g>
</g>
<g>
</g>
<g>
</g>
<g>
</g>
<g>
</g>
<g>
</g>
<g>
</g>
<g>
</g>
</svg>
